<mxfile host="app.diagrams.net" modified="2023-02-21T19:19:02.777Z" agent="5.0 (Macintosh; Intel Mac OS X 10_15_7) AppleWebKit/537.36 (KHTML, like Gecko) Chrome/109.0.0.0 Safari/537.36" etag="38RGl3T8sfpOL-rFiabZ" version="20.8.22" type="github">
  <diagram name="Страница 1" id="dl8KgAMUToVyjUrp3xqV">
    <mxGraphModel dx="1306" dy="722" grid="1" gridSize="10" guides="1" tooltips="1" connect="1" arrows="1" fold="1" page="1" pageScale="1" pageWidth="827" pageHeight="1169" math="0" shadow="0">
      <root>
        <mxCell id="0" />
        <mxCell id="1" parent="0" />
        <mxCell id="eq7EaYwAeTrioy_Z5e4B-2" value="Acqusition" style="rounded=1;whiteSpace=wrap;html=1;" vertex="1" parent="1">
          <mxGeometry x="200" y="420" width="120" height="60" as="geometry" />
        </mxCell>
        <mxCell id="eq7EaYwAeTrioy_Z5e4B-3" value="Payments" style="rounded=1;whiteSpace=wrap;html=1;" vertex="1" parent="1">
          <mxGeometry x="440" y="420" width="120" height="60" as="geometry" />
        </mxCell>
        <mxCell id="eq7EaYwAeTrioy_Z5e4B-4" value="Event Bus" style="rounded=1;whiteSpace=wrap;html=1;" vertex="1" parent="1">
          <mxGeometry x="200" y="560" width="360" height="60" as="geometry" />
        </mxCell>
        <mxCell id="eq7EaYwAeTrioy_Z5e4B-5" value="" style="endArrow=classic;html=1;rounded=0;exitX=0.125;exitY=1.017;exitDx=0;exitDy=0;exitPerimeter=0;entryX=0.042;entryY=-0.067;entryDx=0;entryDy=0;entryPerimeter=0;" edge="1" parent="1" source="eq7EaYwAeTrioy_Z5e4B-2" target="eq7EaYwAeTrioy_Z5e4B-4">
          <mxGeometry width="50" height="50" relative="1" as="geometry">
            <mxPoint x="500" y="620" as="sourcePoint" />
            <mxPoint x="550" y="570" as="targetPoint" />
          </mxGeometry>
        </mxCell>
        <mxCell id="eq7EaYwAeTrioy_Z5e4B-6" value="" style="endArrow=classic;html=1;rounded=0;exitX=0.125;exitY=1.017;exitDx=0;exitDy=0;exitPerimeter=0;entryX=0.042;entryY=-0.067;entryDx=0;entryDy=0;entryPerimeter=0;" edge="1" parent="1">
          <mxGeometry width="50" height="50" relative="1" as="geometry">
            <mxPoint x="460" y="485" as="sourcePoint" />
            <mxPoint x="460" y="560" as="targetPoint" />
          </mxGeometry>
        </mxCell>
        <mxCell id="eq7EaYwAeTrioy_Z5e4B-7" value="" style="endArrow=classic;html=1;rounded=0;exitX=0.25;exitY=0;exitDx=0;exitDy=0;entryX=0.75;entryY=1;entryDx=0;entryDy=0;" edge="1" parent="1" source="eq7EaYwAeTrioy_Z5e4B-4" target="eq7EaYwAeTrioy_Z5e4B-2">
          <mxGeometry width="50" height="50" relative="1" as="geometry">
            <mxPoint x="500" y="620" as="sourcePoint" />
            <mxPoint x="550" y="570" as="targetPoint" />
          </mxGeometry>
        </mxCell>
        <mxCell id="eq7EaYwAeTrioy_Z5e4B-8" value="" style="endArrow=classic;html=1;rounded=0;exitX=0.25;exitY=0;exitDx=0;exitDy=0;entryX=0.75;entryY=1;entryDx=0;entryDy=0;" edge="1" parent="1">
          <mxGeometry width="50" height="50" relative="1" as="geometry">
            <mxPoint x="530" y="560" as="sourcePoint" />
            <mxPoint x="530" y="480" as="targetPoint" />
          </mxGeometry>
        </mxCell>
        <mxCell id="eq7EaYwAeTrioy_Z5e4B-9" value="publish&lt;br&gt;event" style="text;html=1;align=center;verticalAlign=middle;resizable=0;points=[];autosize=1;strokeColor=none;fillColor=none;" vertex="1" parent="1">
          <mxGeometry x="150" y="505" width="60" height="40" as="geometry" />
        </mxCell>
        <mxCell id="eq7EaYwAeTrioy_Z5e4B-10" value="publish&lt;br&gt;event" style="text;html=1;align=center;verticalAlign=middle;resizable=0;points=[];autosize=1;strokeColor=none;fillColor=none;" vertex="1" parent="1">
          <mxGeometry x="390" y="510" width="60" height="40" as="geometry" />
        </mxCell>
        <mxCell id="eq7EaYwAeTrioy_Z5e4B-11" value="consume&lt;br&gt;event" style="text;html=1;align=center;verticalAlign=middle;resizable=0;points=[];autosize=1;strokeColor=none;fillColor=none;" vertex="1" parent="1">
          <mxGeometry x="225" y="505" width="70" height="40" as="geometry" />
        </mxCell>
        <mxCell id="eq7EaYwAeTrioy_Z5e4B-12" value="consume&lt;br&gt;event" style="text;html=1;align=center;verticalAlign=middle;resizable=0;points=[];autosize=1;strokeColor=none;fillColor=none;" vertex="1" parent="1">
          <mxGeometry x="480" y="510" width="70" height="40" as="geometry" />
        </mxCell>
      </root>
    </mxGraphModel>
  </diagram>
</mxfile>
